<svg xmlns="http://www.w3.org/2000/svg" width="16.02in" height="6.01in" viewBox="0 0 1153.69 432.53">
  <defs>
    <style>
      .cls-1 {
        fill: none;
        stroke: #fff;
        stroke-miterlimit: 10;
        stroke-width: 1.7px;
      }

      .cls-2, .cls-3 {
        fill: #fff;
      }

      .cls-3 {
        font-size: 315.3px;
        font-family: PoplarStd, Poplar Std;
        letter-spacing: 0.41em;
      }
    </style>
  </defs>
  <title>bmeg-logo-white</title>
  <g id="edges">
    <line class="cls-1" x1="768.82" y1="17.53" x2="923.86" y2="12.13"/>
    <line class="cls-1" x1="833.53" y1="45.84" x2="923.86" y2="12.13"/>
    <line class="cls-1" x1="825.44" y1="186.04" x2="923.86" y2="12.13"/>
    <line class="cls-1" x1="1024.29" y1="66.73" x2="923.86" y2="12.13"/>
    <line class="cls-1" x1="1066.76" y1="17.53" x2="1024.29" y2="66.73"/>
    <line class="cls-1" x1="1052.6" y1="150.32" x2="1024.29" y2="66.73"/>
    <line class="cls-1" x1="1132.81" y1="99.76" x2="1024.29" y2="66.73"/>
    <line class="cls-1" x1="1110.57" y1="235.25" x2="1132.81" y2="99.76"/>
    <line class="cls-1" x1="1052.6" y1="150.32" x2="1132.81" y2="99.76"/>
    <line class="cls-1" x1="1053.27" y1="281.76" x2="1110.57" y2="235.25"/>
    <line class="cls-1" x1="904.98" y1="409.83" x2="1053.27" y2="281.76"/>
    <line class="cls-1" x1="1065.41" y1="382.87" x2="1053.27" y2="281.76"/>
    <line class="cls-1" x1="818.7" y1="283.11" x2="825.44" y2="180.65"/>
    <line class="cls-1" x1="768.82" y1="386.91" x2="818.7" y2="283.11"/>
    <line class="cls-1" x1="904.98" y1="409.83" x2="818.7" y2="283.11"/>
    <line class="cls-1" x1="825.44" y1="180.65" x2="906.33" y2="184.69"/>
    <line class="cls-1" x1="904.98" y1="409.83" x2="940.03" y2="285.8"/>
    <line class="cls-1" x1="1024.29" y1="66.73" x2="960.25" y2="111.89"/>
    <line class="cls-1" x1="818.7" y1="283.11" x2="910.37" y2="229.18"/>
    <line class="cls-1" x1="1053.27" y1="281.76" x2="975.08" y2="279.06"/>
    <line class="cls-1" x1="1110.57" y1="235.25" x2="1029.01" y2="63.36"/>
    <line class="cls-1" x1="913.07" y1="163.12" x2="766.13" y2="21.57"/>
    <line class="cls-1" x1="1065.41" y1="382.87" x2="814.66" y2="285.8"/>
  </g>
  <g id="nodes">
    <circle class="cls-2" cx="833.53" cy="45.84" r="9.44"/>
    <circle class="cls-2" cx="923.86" cy="12.13" r="12.13"/>
    <circle class="cls-2" cx="1066.76" cy="17.53" r="13.48"/>
    <circle class="cls-2" cx="1052.6" cy="150.32" r="8.76"/>
    <circle class="cls-2" cx="1110.57" cy="235.25" r="15.5"/>
    <circle class="cls-2" cx="1053.27" cy="281.76" r="8.09"/>
    <circle class="cls-2" cx="905.76" cy="406.35" r="26.18"/>
    <circle class="cls-2" cx="818.7" cy="283.11" r="8.09"/>
    <circle class="cls-2" cx="825.44" cy="180.65" r="20.22"/>
    <circle class="cls-2" cx="1065.41" cy="382.87" r="22.92"/>
    <circle class="cls-2" cx="1024.29" cy="66.73" r="14.16"/>
    <circle class="cls-2" cx="768.82" cy="17.53" r="14.83"/>
    <circle class="cls-2" cx="768.82" cy="386.91" r="14.83"/>
    <circle class="cls-2" cx="1132.81" cy="99.76" r="10.78"/>
  </g>
  <g id="bmeg">
    <text class="cls-3" transform="translate(0 315.68)">BMEG</text>
  </g>
</svg>
